<mxfile host="Electron" modified="2024-11-08T23:03:14.438Z" agent="Mozilla/5.0 (Windows NT 10.0; Win64; x64) AppleWebKit/537.36 (KHTML, like Gecko) draw.io/21.1.2 Chrome/106.0.5249.199 Electron/21.4.3 Safari/537.36" etag="jcmDNk_VsWJVAnfl0-vs" version="21.1.2" type="device">
  <diagram name="Page-1" id="WyBD1C7oyKLpwi_LZ1-e">
    <mxGraphModel dx="1578" dy="1149" grid="1" gridSize="10" guides="1" tooltips="1" connect="1" arrows="1" fold="1" page="1" pageScale="1" pageWidth="850" pageHeight="1100" math="0" shadow="0">
      <root>
        <mxCell id="0" />
        <mxCell id="1" parent="0" />
        <mxCell id="TYorW9crKrZJvMIdhiDP-41" value="" style="ellipse;whiteSpace=wrap;html=1;" vertex="1" parent="1">
          <mxGeometry x="350" y="50" width="120" height="80" as="geometry" />
        </mxCell>
        <mxCell id="TYorW9crKrZJvMIdhiDP-1" value="&lt;font style=&quot;font-size: 24px;&quot;&gt;Salesperson&lt;/font&gt;" style="shape=umlActor;verticalLabelPosition=bottom;verticalAlign=top;html=1;outlineConnect=0;" vertex="1" parent="1">
          <mxGeometry x="100" y="250" width="30" height="60" as="geometry" />
        </mxCell>
        <mxCell id="TYorW9crKrZJvMIdhiDP-2" value="&lt;font style=&quot;font-size: 24px;&quot;&gt;Admin&lt;/font&gt;" style="shape=umlActor;verticalLabelPosition=bottom;verticalAlign=top;html=1;outlineConnect=0;" vertex="1" parent="1">
          <mxGeometry x="100" y="820" width="30" height="60" as="geometry" />
        </mxCell>
        <mxCell id="TYorW9crKrZJvMIdhiDP-3" value="&lt;font style=&quot;font-size: 24px;&quot;&gt;Customer&lt;/font&gt;" style="shape=umlActor;verticalLabelPosition=bottom;verticalAlign=top;html=1;outlineConnect=0;" vertex="1" parent="1">
          <mxGeometry x="110" y="1180" width="30" height="60" as="geometry" />
        </mxCell>
        <mxCell id="TYorW9crKrZJvMIdhiDP-12" value="" style="endArrow=none;html=1;rounded=0;" edge="1" parent="1">
          <mxGeometry width="50" height="50" relative="1" as="geometry">
            <mxPoint x="160" y="280" as="sourcePoint" />
            <mxPoint x="350" y="90" as="targetPoint" />
          </mxGeometry>
        </mxCell>
        <mxCell id="TYorW9crKrZJvMIdhiDP-13" value="" style="endArrow=none;html=1;rounded=0;" edge="1" parent="1">
          <mxGeometry width="50" height="50" relative="1" as="geometry">
            <mxPoint x="370" y="380" as="sourcePoint" />
            <mxPoint x="160" y="280" as="targetPoint" />
          </mxGeometry>
        </mxCell>
        <mxCell id="TYorW9crKrZJvMIdhiDP-14" value="" style="endArrow=none;html=1;rounded=0;" edge="1" parent="1">
          <mxGeometry width="50" height="50" relative="1" as="geometry">
            <mxPoint x="160" y="840" as="sourcePoint" />
            <mxPoint x="350" y="650" as="targetPoint" />
          </mxGeometry>
        </mxCell>
        <mxCell id="TYorW9crKrZJvMIdhiDP-15" value="" style="endArrow=none;html=1;rounded=0;" edge="1" parent="1">
          <mxGeometry width="50" height="50" relative="1" as="geometry">
            <mxPoint x="370" y="940" as="sourcePoint" />
            <mxPoint x="160" y="840" as="targetPoint" />
          </mxGeometry>
        </mxCell>
        <mxCell id="TYorW9crKrZJvMIdhiDP-18" value="Add Item to Inventory" style="text;html=1;strokeColor=none;fillColor=none;align=center;verticalAlign=middle;whiteSpace=wrap;rounded=0;" vertex="1" parent="1">
          <mxGeometry x="380" y="75" width="60" height="30" as="geometry" />
        </mxCell>
        <mxCell id="TYorW9crKrZJvMIdhiDP-40" value="" style="shape=link;html=1;rounded=0;fillColor=#000000;" edge="1" parent="1">
          <mxGeometry width="100" relative="1" as="geometry">
            <mxPoint y="1640" as="sourcePoint" />
            <mxPoint x="850" y="1640" as="targetPoint" />
          </mxGeometry>
        </mxCell>
        <mxCell id="TYorW9crKrZJvMIdhiDP-42" value="" style="ellipse;whiteSpace=wrap;html=1;" vertex="1" parent="1">
          <mxGeometry x="370" y="350" width="120" height="80" as="geometry" />
        </mxCell>
        <mxCell id="TYorW9crKrZJvMIdhiDP-43" value="Update Item Stock" style="text;html=1;strokeColor=none;fillColor=none;align=center;verticalAlign=middle;whiteSpace=wrap;rounded=0;" vertex="1" parent="1">
          <mxGeometry x="400" y="375" width="60" height="30" as="geometry" />
        </mxCell>
        <mxCell id="TYorW9crKrZJvMIdhiDP-44" value="" style="endArrow=none;html=1;rounded=0;" edge="1" parent="1">
          <mxGeometry width="50" height="50" relative="1" as="geometry">
            <mxPoint x="480" y="180" as="sourcePoint" />
            <mxPoint x="160" y="279.41" as="targetPoint" />
          </mxGeometry>
        </mxCell>
        <mxCell id="TYorW9crKrZJvMIdhiDP-45" value="" style="ellipse;whiteSpace=wrap;html=1;" vertex="1" parent="1">
          <mxGeometry x="470" y="130" width="120" height="80" as="geometry" />
        </mxCell>
        <mxCell id="TYorW9crKrZJvMIdhiDP-46" value="Add Customer" style="text;html=1;strokeColor=none;fillColor=none;align=center;verticalAlign=middle;whiteSpace=wrap;rounded=0;" vertex="1" parent="1">
          <mxGeometry x="500" y="155" width="60" height="30" as="geometry" />
        </mxCell>
        <mxCell id="TYorW9crKrZJvMIdhiDP-48" value="" style="ellipse;whiteSpace=wrap;html=1;" vertex="1" parent="1">
          <mxGeometry x="580" y="240" width="120" height="80" as="geometry" />
        </mxCell>
        <mxCell id="TYorW9crKrZJvMIdhiDP-49" value="Process Transactions" style="text;html=1;strokeColor=none;fillColor=none;align=center;verticalAlign=middle;whiteSpace=wrap;rounded=0;" vertex="1" parent="1">
          <mxGeometry x="610" y="265" width="60" height="30" as="geometry" />
        </mxCell>
        <mxCell id="TYorW9crKrZJvMIdhiDP-51" value="" style="endArrow=block;dashed=1;endFill=0;endSize=12;html=1;rounded=0;" edge="1" parent="1" target="TYorW9crKrZJvMIdhiDP-48">
          <mxGeometry width="160" relative="1" as="geometry">
            <mxPoint x="570" y="200" as="sourcePoint" />
            <mxPoint x="730" y="200" as="targetPoint" />
          </mxGeometry>
        </mxCell>
        <mxCell id="TYorW9crKrZJvMIdhiDP-52" value="&amp;lt;&amp;lt;include&amp;gt;&amp;gt;" style="text;html=1;strokeColor=none;fillColor=none;align=center;verticalAlign=middle;whiteSpace=wrap;rounded=0;" vertex="1" parent="1">
          <mxGeometry x="590" y="190" width="60" height="30" as="geometry" />
        </mxCell>
        <mxCell id="TYorW9crKrZJvMIdhiDP-55" value="" style="ellipse;whiteSpace=wrap;html=1;" vertex="1" parent="1">
          <mxGeometry x="350" y="600" width="120" height="80" as="geometry" />
        </mxCell>
        <mxCell id="TYorW9crKrZJvMIdhiDP-56" value="Generate Report" style="text;html=1;strokeColor=none;fillColor=none;align=center;verticalAlign=middle;whiteSpace=wrap;rounded=0;" vertex="1" parent="1">
          <mxGeometry x="380" y="625" width="60" height="30" as="geometry" />
        </mxCell>
        <mxCell id="TYorW9crKrZJvMIdhiDP-57" value="" style="ellipse;whiteSpace=wrap;html=1;" vertex="1" parent="1">
          <mxGeometry x="460" y="710" width="120" height="80" as="geometry" />
        </mxCell>
        <mxCell id="TYorW9crKrZJvMIdhiDP-58" value="View Inventory Status" style="text;html=1;strokeColor=none;fillColor=none;align=center;verticalAlign=middle;whiteSpace=wrap;rounded=0;" vertex="1" parent="1">
          <mxGeometry x="490" y="735" width="60" height="30" as="geometry" />
        </mxCell>
        <mxCell id="TYorW9crKrZJvMIdhiDP-59" value="" style="endArrow=block;dashed=1;endFill=0;endSize=12;html=1;rounded=0;" edge="1" target="TYorW9crKrZJvMIdhiDP-57" parent="1">
          <mxGeometry width="160" relative="1" as="geometry">
            <mxPoint x="450" y="670" as="sourcePoint" />
            <mxPoint x="610" y="670" as="targetPoint" />
          </mxGeometry>
        </mxCell>
        <mxCell id="TYorW9crKrZJvMIdhiDP-60" value="&amp;lt;&amp;lt;extends&amp;gt;&amp;gt;" style="text;html=1;strokeColor=none;fillColor=none;align=center;verticalAlign=middle;whiteSpace=wrap;rounded=0;" vertex="1" parent="1">
          <mxGeometry x="470" y="660" width="60" height="30" as="geometry" />
        </mxCell>
        <mxCell id="TYorW9crKrZJvMIdhiDP-61" value="" style="ellipse;whiteSpace=wrap;html=1;" vertex="1" parent="1">
          <mxGeometry x="365" y="900" width="120" height="80" as="geometry" />
        </mxCell>
        <mxCell id="TYorW9crKrZJvMIdhiDP-62" value="View Customer History" style="text;html=1;strokeColor=none;fillColor=none;align=center;verticalAlign=middle;whiteSpace=wrap;rounded=0;" vertex="1" parent="1">
          <mxGeometry x="395" y="925" width="60" height="30" as="geometry" />
        </mxCell>
        <mxCell id="TYorW9crKrZJvMIdhiDP-63" value="" style="ellipse;whiteSpace=wrap;html=1;" vertex="1" parent="1">
          <mxGeometry x="390" y="1170" width="120" height="80" as="geometry" />
        </mxCell>
        <mxCell id="TYorW9crKrZJvMIdhiDP-64" value="Process Transactions" style="text;html=1;strokeColor=none;fillColor=none;align=center;verticalAlign=middle;whiteSpace=wrap;rounded=0;" vertex="1" parent="1">
          <mxGeometry x="420" y="1195" width="60" height="30" as="geometry" />
        </mxCell>
        <mxCell id="TYorW9crKrZJvMIdhiDP-67" value="" style="endArrow=open;endFill=1;endSize=12;html=1;rounded=0;entryX=0;entryY=0.5;entryDx=0;entryDy=0;" edge="1" parent="1" target="TYorW9crKrZJvMIdhiDP-63">
          <mxGeometry width="160" relative="1" as="geometry">
            <mxPoint x="170" y="1209.41" as="sourcePoint" />
            <mxPoint x="330" y="1209.41" as="targetPoint" />
          </mxGeometry>
        </mxCell>
      </root>
    </mxGraphModel>
  </diagram>
</mxfile>
